<svg width="28" height="30" viewBox="0 0 28 30" fill="none" xmlns="http://www.w3.org/2000/svg">
<path fill-rule="evenodd" clip-rule="evenodd" d="M0.310883 23.0486C1.64428 25.1728 3.49418 26.9244 5.68788 28.14C7.88158 29.3556 10.3475 29.9955 12.8555 30C16.7838 29.9885 20.5478 28.4227 23.3252 25.6447C26.1026 22.8666 27.6676 19.1022 27.6782 15.174V14.8394C27.6711 10.9088 26.1077 7.141 23.3299 4.36007C20.5521 1.57915 16.7861 0.0114918 12.8555 0C10.3118 0.0054437 7.81208 0.663769 5.59578 1.91195C3.37938 3.16012 1.52048 4.95636 0.197083 7.12868L2.87328 9.80486C12.7351 9.80486 13.1264 9.80486 18.2814 14.9599C13.2134 20.0714 12.9592 20.4694 2.88668 20.4694L0.310883 23.0486Z" fill="#0066FF"/>
</svg>
